<?xml version="1.0" encoding="UTF-8" standalone="no"?>
<!DOCTYPE svg PUBLIC "-//W3C//DTD SVG 1.1//EN"
 "http://www.w3.org/Graphics/SVG/1.1/DTD/svg11.dtd">
<!-- Generated by graphviz version 12.1.2 (20240928.0832)
 -->
<!-- Title: m_employee_delegate_scope Pages: 1 -->
<svg width="931pt" height="1746pt"
 viewBox="0.00 0.00 930.50 1746.00" xmlns="http://www.w3.org/2000/svg" xmlns:xlink="http://www.w3.org/1999/xlink">
<g id="graph0" class="graph" transform="scale(1 1) rotate(0) translate(4 1742)">
<title>m_employee_delegate_scope</title>
<polygon fill="white" stroke="none" points="-4,4 -4,-1742 926.5,-1742 926.5,4 -4,4"/>
<!-- m_employee_delegate_scope -->
<g id="node1" class="node">
<title>m_employee_delegate_scope</title>
<polygon fill="#efefef" stroke="none" points="160.59,-1645.8 160.59,-1691.8 525.09,-1691.8 525.09,-1645.8 160.59,-1645.8"/>
<polygon fill="none" stroke="black" points="160.59,-1645.8 160.59,-1691.8 525.09,-1691.8 525.09,-1645.8 160.59,-1645.8"/>
<text text-anchor="start" x="174.64" y="-1669.6" font-family="Arial Bold" font-size="18.00">m_employee_delegate_scope</text>
<text text-anchor="start" x="386.55" y="-1669.6" font-family="Arial" font-size="14.00">    </text>
<text text-anchor="start" x="417.67" y="-1669.6" font-family="Arial" font-size="14.00" fill="#666666">[BASE TABLE]</text>
<text text-anchor="start" x="302" y="-1655.2" font-family="Arial" font-size="14.00" fill="#333333">代理範囲マスタ</text>
<polygon fill="none" stroke="black" points="160.59,-1615 160.59,-1645.8 525.09,-1645.8 525.09,-1615 160.59,-1615"/>
<text text-anchor="start" x="167.59" y="-1627.2" font-family="Arial" font-size="14.00">scope_id </text>
<text text-anchor="start" x="227.52" y="-1627.2" font-family="Arial" font-size="14.00" fill="#666666">[bigint unsigned]</text>
<text text-anchor="start" x="329.49" y="-1627.2" font-family="Arial" font-size="14.00"> 代理範囲ID</text>
<polygon fill="none" stroke="black" points="160.59,-1584.2 160.59,-1615 525.09,-1615 525.09,-1584.2 160.59,-1584.2"/>
<text text-anchor="start" x="167.59" y="-1596.4" font-family="Arial" font-size="14.00">delegate_seq </text>
<text text-anchor="start" x="255.55" y="-1596.4" font-family="Arial" font-size="14.00" fill="#666666">[bigint unsigned]</text>
<text text-anchor="start" x="357.52" y="-1596.4" font-family="Arial" font-size="14.00"> 代理設定ID</text>
<polygon fill="none" stroke="black" points="160.59,-1553.4 160.59,-1584.2 525.09,-1584.2 525.09,-1553.4 160.59,-1553.4"/>
<text text-anchor="start" x="167.59" y="-1565.6" font-family="Arial" font-size="14.00">wf_key </text>
<text text-anchor="start" x="215.05" y="-1565.6" font-family="Arial" font-size="14.00" fill="#666666">[varchar(64)]</text>
<text text-anchor="start" x="294.41" y="-1565.6" font-family="Arial" font-size="14.00"> 対象WFキー(NULL=全)</text>
<polygon fill="none" stroke="black" points="160.59,-1522.6 160.59,-1553.4 525.09,-1553.4 525.09,-1522.6 160.59,-1522.6"/>
<text text-anchor="start" x="167.59" y="-1534.8" font-family="Arial" font-size="14.00">wf_step_no </text>
<text text-anchor="start" x="243.09" y="-1534.8" font-family="Arial" font-size="14.00" fill="#666666">[smallint]</text>
<text text-anchor="start" x="298.32" y="-1534.8" font-family="Arial" font-size="14.00"> ステップ番号(NULL=全)</text>
<polygon fill="none" stroke="black" points="160.59,-1491.8 160.59,-1522.6 525.09,-1522.6 525.09,-1491.8 160.59,-1491.8"/>
<text text-anchor="start" x="167.59" y="-1504" font-family="Arial" font-size="14.00">perm_code </text>
<text text-anchor="start" x="241.52" y="-1504" font-family="Arial" font-size="14.00" fill="#666666">[varchar(50)]</text>
<text text-anchor="start" x="320.88" y="-1504" font-family="Arial" font-size="14.00"> 追加パーミッション(NULL=無指定)</text>
<polygon fill="none" stroke="black" points="160.59,-1461 160.59,-1491.8 525.09,-1491.8 525.09,-1461 160.59,-1461"/>
<text text-anchor="start" x="167.59" y="-1473.2" font-family="Arial" font-size="14.00">valid_from </text>
<text text-anchor="start" x="236.06" y="-1473.2" font-family="Arial" font-size="14.00" fill="#666666">[datetime]</text>
<text text-anchor="start" x="297.53" y="-1473.2" font-family="Arial" font-size="14.00"> 有効開始日時</text>
<polygon fill="none" stroke="black" points="160.59,-1430.2 160.59,-1461 525.09,-1461 525.09,-1430.2 160.59,-1430.2"/>
<text text-anchor="start" x="167.59" y="-1442.4" font-family="Arial" font-size="14.00">valid_to </text>
<text text-anchor="start" x="219.73" y="-1442.4" font-family="Arial" font-size="14.00" fill="#666666">[datetime]</text>
<text text-anchor="start" x="281.21" y="-1442.4" font-family="Arial" font-size="14.00"> 有効終了日時</text>
<polygon fill="none" stroke="black" points="160.59,-1399.4 160.59,-1430.2 525.09,-1430.2 525.09,-1399.4 160.59,-1399.4"/>
<text text-anchor="start" x="167.59" y="-1411.6" font-family="Arial" font-size="14.00">deleted_at </text>
<text text-anchor="start" x="236.87" y="-1411.6" font-family="Arial" font-size="14.00" fill="#666666">[datetime]</text>
<text text-anchor="start" x="298.35" y="-1411.6" font-family="Arial" font-size="14.00"> 論理削除</text>
<polygon fill="none" stroke="black" points="160.59,-1368.6 160.59,-1399.4 525.09,-1399.4 525.09,-1368.6 160.59,-1368.6"/>
<text text-anchor="start" x="167.59" y="-1380.8" font-family="Arial" font-size="14.00">created_at </text>
<text text-anchor="start" x="237.64" y="-1380.8" font-family="Arial" font-size="14.00" fill="#666666">[datetime]</text>
<text text-anchor="start" x="299.11" y="-1380.8" font-family="Arial" font-size="14.00"> 登録日時</text>
<polygon fill="none" stroke="black" points="160.59,-1337.8 160.59,-1368.6 525.09,-1368.6 525.09,-1337.8 160.59,-1337.8"/>
<text text-anchor="start" x="167.59" y="-1350" font-family="Arial" font-size="14.00">updated_at </text>
<text text-anchor="start" x="241.55" y="-1350" font-family="Arial" font-size="14.00" fill="#666666">[datetime]</text>
<text text-anchor="start" x="303.02" y="-1350" font-family="Arial" font-size="14.00"> 更新日時</text>
<polygon fill="none" stroke="black" points="160.59,-1307 160.59,-1337.8 525.09,-1337.8 525.09,-1307 160.59,-1307"/>
<text text-anchor="start" x="167.59" y="-1319.2" font-family="Arial" font-size="14.00">version </text>
<text text-anchor="start" x="216.61" y="-1319.2" font-family="Arial" font-size="14.00" fill="#666666">[int unsigned]</text>
<text text-anchor="start" x="299.89" y="-1319.2" font-family="Arial" font-size="14.00"> バージョン</text>
<polygon fill="none" stroke="black" stroke-width="3" points="159.09,-1305.5 159.09,-1693.3 526.59,-1693.3 526.59,-1305.5 159.09,-1305.5"/>
</g>
<!-- m_employee_delegate -->
<g id="node2" class="node">
<title>m_employee_delegate</title>
<polygon fill="#efefef" stroke="none" points="142.21,-1135.6 142.21,-1181.6 543.47,-1181.6 543.47,-1135.6 142.21,-1135.6"/>
<polygon fill="none" stroke="black" points="142.21,-1135.6 142.21,-1181.6 543.47,-1181.6 543.47,-1135.6 142.21,-1135.6"/>
<text text-anchor="start" x="199.63" y="-1159.4" font-family="Arial Bold" font-size="18.00">m_employee_delegate</text>
<text text-anchor="start" x="361.56" y="-1159.4" font-family="Arial" font-size="14.00">    </text>
<text text-anchor="start" x="392.68" y="-1159.4" font-family="Arial" font-size="14.00" fill="#666666">[BASE TABLE]</text>
<text text-anchor="start" x="302" y="-1145" font-family="Arial" font-size="14.00" fill="#333333">代理設定マスタ</text>
<polygon fill="none" stroke="black" points="142.21,-1104.8 142.21,-1135.6 543.47,-1135.6 543.47,-1104.8 142.21,-1104.8"/>
<text text-anchor="start" x="149.21" y="-1117" font-family="Arial" font-size="14.00">delegate_seq </text>
<text text-anchor="start" x="237.17" y="-1117" font-family="Arial" font-size="14.00" fill="#666666">[bigint unsigned]</text>
<text text-anchor="start" x="339.14" y="-1117" font-family="Arial" font-size="14.00"> 代理シーケンスPK</text>
<polygon fill="none" stroke="black" points="142.21,-1074 142.21,-1104.8 543.47,-1104.8 543.47,-1074 142.21,-1074"/>
<text text-anchor="start" x="149.21" y="-1086.2" font-family="Arial" font-size="14.00">emp_id </text>
<text text-anchor="start" x="199.01" y="-1086.2" font-family="Arial" font-size="14.00" fill="#666666">[bigint unsigned]</text>
<text text-anchor="start" x="300.98" y="-1086.2" font-family="Arial" font-size="14.00"> 本人</text>
<polygon fill="none" stroke="black" points="142.21,-1043.2 142.21,-1074 543.47,-1074 543.47,-1043.2 142.21,-1043.2"/>
<text text-anchor="start" x="149.21" y="-1055.4" font-family="Arial" font-size="14.00">delegate_id </text>
<text text-anchor="start" x="225.5" y="-1055.4" font-family="Arial" font-size="14.00" fill="#666666">[bigint unsigned]</text>
<text text-anchor="start" x="327.46" y="-1055.4" font-family="Arial" font-size="14.00"> 代理人</text>
<polygon fill="none" stroke="black" points="142.21,-1012.4 142.21,-1043.2 543.47,-1043.2 543.47,-1012.4 142.21,-1012.4"/>
<text text-anchor="start" x="149.21" y="-1024.6" font-family="Arial" font-size="14.00">mode </text>
<text text-anchor="start" x="188.12" y="-1024.6" font-family="Arial" font-size="14.00" fill="#666666">[enum(&#39;ALL&#39;,&#39;LIMITED&#39;)]</text>
<text text-anchor="start" x="334.96" y="-1024.6" font-family="Arial" font-size="14.00"> ALL=全権委任, LIMITED=範囲指定</text>
<polygon fill="none" stroke="black" points="142.21,-981.6 142.21,-1012.4 543.47,-1012.4 543.47,-981.6 142.21,-981.6"/>
<text text-anchor="start" x="149.21" y="-993.8" font-family="Arial" font-size="14.00">valid_from </text>
<text text-anchor="start" x="217.68" y="-993.8" font-family="Arial" font-size="14.00" fill="#666666">[datetime]</text>
<text text-anchor="start" x="279.15" y="-993.8" font-family="Arial" font-size="14.00"> 有効開始日時</text>
<polygon fill="none" stroke="black" points="142.21,-950.8 142.21,-981.6 543.47,-981.6 543.47,-950.8 142.21,-950.8"/>
<text text-anchor="start" x="149.21" y="-963" font-family="Arial" font-size="14.00">valid_to </text>
<text text-anchor="start" x="201.35" y="-963" font-family="Arial" font-size="14.00" fill="#666666">[datetime]</text>
<text text-anchor="start" x="262.83" y="-963" font-family="Arial" font-size="14.00"> 有効終了日時</text>
<polygon fill="none" stroke="black" points="142.21,-920 142.21,-950.8 543.47,-950.8 543.47,-920 142.21,-920"/>
<text text-anchor="start" x="149.21" y="-932.2" font-family="Arial" font-size="14.00">deleted_at </text>
<text text-anchor="start" x="218.49" y="-932.2" font-family="Arial" font-size="14.00" fill="#666666">[datetime]</text>
<text text-anchor="start" x="279.97" y="-932.2" font-family="Arial" font-size="14.00"> 論理削除日時</text>
<polygon fill="none" stroke="black" points="142.21,-889.2 142.21,-920 543.47,-920 543.47,-889.2 142.21,-889.2"/>
<text text-anchor="start" x="149.21" y="-901.4" font-family="Arial" font-size="14.00">created_at </text>
<text text-anchor="start" x="219.26" y="-901.4" font-family="Arial" font-size="14.00" fill="#666666">[datetime]</text>
<text text-anchor="start" x="280.73" y="-901.4" font-family="Arial" font-size="14.00"> 登録日時</text>
<polygon fill="none" stroke="black" points="142.21,-858.4 142.21,-889.2 543.47,-889.2 543.47,-858.4 142.21,-858.4"/>
<text text-anchor="start" x="149.21" y="-870.6" font-family="Arial" font-size="14.00">updated_at </text>
<text text-anchor="start" x="223.17" y="-870.6" font-family="Arial" font-size="14.00" fill="#666666">[datetime]</text>
<text text-anchor="start" x="284.64" y="-870.6" font-family="Arial" font-size="14.00"> 更新日時</text>
<polygon fill="none" stroke="black" points="142.21,-827.6 142.21,-858.4 543.47,-858.4 543.47,-827.6 142.21,-827.6"/>
<text text-anchor="start" x="149.21" y="-839.8" font-family="Arial" font-size="14.00">version </text>
<text text-anchor="start" x="198.23" y="-839.8" font-family="Arial" font-size="14.00" fill="#666666">[int unsigned]</text>
<text text-anchor="start" x="281.51" y="-839.8" font-family="Arial" font-size="14.00"> バージョン</text>
</g>
<!-- m_employee_delegate_scope&#45;&gt;m_employee_delegate -->
<g id="edge1" class="edge">
<title>m_employee_delegate_scope:delegate_seq&#45;&gt;m_employee_delegate:delegate_seq</title>
<path fill="none" stroke="black" d="M536.24,-1599.23C739.84,-1584.28 754.26,-1120.2 544.47,-1120.2"/>
<polygon fill="black" stroke="black" points="536.42,-1599.22 526.26,-1595.09 531.09,-1599.42 526.76,-1599.58 526.76,-1599.58 526.76,-1599.58 531.09,-1599.42 526.59,-1604.08 536.42,-1599.22"/>
<text text-anchor="start" x="533.09" y="-1609.6" font-family="Arial" font-size="10.00">FOREIGN KEY (delegate_seq) REFERENCES m_employee_delegate (delegate_seq)</text>
</g>
<!-- m_employee -->
<g id="node3" class="node">
<title>m_employee</title>
<polygon fill="#efefef" stroke="none" points="43.2,-659.2 43.2,-705.2 642.48,-705.2 642.48,-659.2 43.2,-659.2"/>
<polygon fill="none" stroke="black" points="43.2,-659.2 43.2,-705.2 642.48,-705.2 642.48,-659.2 43.2,-659.2"/>
<text text-anchor="start" x="234.11" y="-683" font-family="Arial Bold" font-size="18.00">m_employee</text>
<text text-anchor="start" x="327.08" y="-683" font-family="Arial" font-size="14.00">    </text>
<text text-anchor="start" x="358.2" y="-683" font-family="Arial" font-size="14.00" fill="#666666">[BASE TABLE]</text>
<text text-anchor="start" x="307.83" y="-668.6" font-family="Arial" font-size="14.00" fill="#333333">従業員マスタ</text>
<polygon fill="none" stroke="black" points="43.2,-628.4 43.2,-659.2 642.48,-659.2 642.48,-628.4 43.2,-628.4"/>
<text text-anchor="start" x="50.2" y="-640.6" font-family="Arial" font-size="14.00">emp_id </text>
<text text-anchor="start" x="100.01" y="-640.6" font-family="Arial" font-size="14.00" fill="#666666">[bigint unsigned]</text>
<text text-anchor="start" x="201.97" y="-640.6" font-family="Arial" font-size="14.00"> 従業員ID</text>
<polygon fill="none" stroke="black" points="43.2,-597.6 43.2,-628.4 642.48,-628.4 642.48,-597.6 43.2,-597.6"/>
<text text-anchor="start" x="50.2" y="-609.8" font-family="Arial" font-size="14.00">company_id </text>
<text text-anchor="start" x="129.58" y="-609.8" font-family="Arial" font-size="14.00" fill="#666666">[bigint unsigned]</text>
<text text-anchor="start" x="231.54" y="-609.8" font-family="Arial" font-size="14.00"> 会社ID</text>
<polygon fill="none" stroke="black" points="43.2,-566.8 43.2,-597.6 642.48,-597.6 642.48,-566.8 43.2,-566.8"/>
<text text-anchor="start" x="50.2" y="-579" font-family="Arial" font-size="14.00">org_id </text>
<text text-anchor="start" x="93.01" y="-579" font-family="Arial" font-size="14.00" fill="#666666">[bigint unsigned]</text>
<text text-anchor="start" x="194.97" y="-579" font-family="Arial" font-size="14.00"> 所属組織ID</text>
<polygon fill="none" stroke="black" points="43.2,-536 43.2,-566.8 642.48,-566.8 642.48,-536 43.2,-536"/>
<text text-anchor="start" x="50.2" y="-548.2" font-family="Arial" font-size="14.00">position_id </text>
<text text-anchor="start" x="121.03" y="-548.2" font-family="Arial" font-size="14.00" fill="#666666">[bigint unsigned]</text>
<text text-anchor="start" x="222.99" y="-548.2" font-family="Arial" font-size="14.00"> 役職ID</text>
<polygon fill="none" stroke="black" points="43.2,-505.2 43.2,-536 642.48,-536 642.48,-505.2 43.2,-505.2"/>
<text text-anchor="start" x="50.2" y="-517.4" font-family="Arial" font-size="14.00">emp_code </text>
<text text-anchor="start" x="119.47" y="-517.4" font-family="Arial" font-size="14.00" fill="#666666">[varchar(20)]</text>
<text text-anchor="start" x="198.83" y="-517.4" font-family="Arial" font-size="14.00"> 社員番号</text>
<polygon fill="none" stroke="black" points="43.2,-474.4 43.2,-505.2 642.48,-505.2 642.48,-474.4 43.2,-474.4"/>
<text text-anchor="start" x="50.2" y="-486.6" font-family="Arial" font-size="14.00">azure_ad_object_id </text>
<text text-anchor="start" x="176.3" y="-486.6" font-family="Arial" font-size="14.00" fill="#666666">[char(36)]</text>
<text text-anchor="start" x="236.21" y="-486.6" font-family="Arial" font-size="14.00"> Azure AD Object ID</text>
<polygon fill="none" stroke="black" points="43.2,-443.6 43.2,-474.4 642.48,-474.4 642.48,-443.6 43.2,-443.6"/>
<text text-anchor="start" x="50.2" y="-455.8" font-family="Arial" font-size="14.00">last_name </text>
<text text-anchor="start" x="118.68" y="-455.8" font-family="Arial" font-size="14.00" fill="#666666">[varchar(50)]</text>
<text text-anchor="start" x="198.04" y="-455.8" font-family="Arial" font-size="14.00"> 姓</text>
<polygon fill="none" stroke="black" points="43.2,-412.8 43.2,-443.6 642.48,-443.6 642.48,-412.8 43.2,-412.8"/>
<text text-anchor="start" x="50.2" y="-425" font-family="Arial" font-size="14.00">first_name </text>
<text text-anchor="start" x="119.45" y="-425" font-family="Arial" font-size="14.00" fill="#666666">[varchar(50)]</text>
<text text-anchor="start" x="198.81" y="-425" font-family="Arial" font-size="14.00"> 名</text>
<polygon fill="none" stroke="black" points="43.2,-382 43.2,-412.8 642.48,-412.8 642.48,-382 43.2,-382"/>
<text text-anchor="start" x="50.2" y="-394.2" font-family="Arial" font-size="14.00">last_name_kana </text>
<text text-anchor="start" x="156.83" y="-394.2" font-family="Arial" font-size="14.00" fill="#666666">[varchar(50)]</text>
<text text-anchor="start" x="236.19" y="-394.2" font-family="Arial" font-size="14.00"> 姓（カナ）</text>
<polygon fill="none" stroke="black" points="43.2,-351.2 43.2,-382 642.48,-382 642.48,-351.2 43.2,-351.2"/>
<text text-anchor="start" x="50.2" y="-363.4" font-family="Arial" font-size="14.00">first_name_kana </text>
<text text-anchor="start" x="157.59" y="-363.4" font-family="Arial" font-size="14.00" fill="#666666">[varchar(50)]</text>
<text text-anchor="start" x="236.95" y="-363.4" font-family="Arial" font-size="14.00"> 名（カナ）</text>
<polygon fill="none" stroke="black" points="43.2,-320.4 43.2,-351.2 642.48,-351.2 642.48,-320.4 43.2,-320.4"/>
<text text-anchor="start" x="50.2" y="-332.6" font-family="Arial" font-size="14.00">employment_type </text>
<text text-anchor="start" x="164.59" y="-332.6" font-family="Arial" font-size="14.00" fill="#666666">[enum(&#39;REGULAR&#39;,&#39;CONTRACT&#39;,&#39;PARTTIME&#39;,&#39;TEMP&#39;,&#39;DISPATCH&#39;)]</text>
<text text-anchor="start" x="584.91" y="-332.6" font-family="Arial" font-size="14.00"> 雇用区分</text>
<polygon fill="none" stroke="black" points="43.2,-289.6 43.2,-320.4 642.48,-320.4 642.48,-289.6 43.2,-289.6"/>
<text text-anchor="start" x="50.2" y="-301.8" font-family="Arial" font-size="14.00">status </text>
<text text-anchor="start" x="91.44" y="-301.8" font-family="Arial" font-size="14.00" fill="#666666">[enum(&#39;ACTIVE&#39;,&#39;LEAVE&#39;,&#39;INACTIVE&#39;,&#39;RETIRED&#39;)]</text>
<text text-anchor="start" x="398.33" y="-301.8" font-family="Arial" font-size="14.00"> 在籍ステータス</text>
<polygon fill="none" stroke="black" points="43.2,-258.8 43.2,-289.6 642.48,-289.6 642.48,-258.8 43.2,-258.8"/>
<text text-anchor="start" x="50.2" y="-271" font-family="Arial" font-size="14.00">email </text>
<text text-anchor="start" x="87.54" y="-271" font-family="Arial" font-size="14.00" fill="#666666">[varchar(150)]</text>
<text text-anchor="start" x="174.69" y="-271" font-family="Arial" font-size="14.00"> 社用メールアドレス</text>
<polygon fill="none" stroke="black" points="43.2,-228 43.2,-258.8 642.48,-258.8 642.48,-228 43.2,-228"/>
<text text-anchor="start" x="50.2" y="-240.2" font-family="Arial" font-size="14.00">phone_number </text>
<text text-anchor="start" x="148.28" y="-240.2" font-family="Arial" font-size="14.00" fill="#666666">[varchar(20)]</text>
<text text-anchor="start" x="227.63" y="-240.2" font-family="Arial" font-size="14.00"> 連絡先電話番号</text>
<polygon fill="none" stroke="black" points="43.2,-197.2 43.2,-228 642.48,-228 642.48,-197.2 43.2,-197.2"/>
<text text-anchor="start" x="50.2" y="-209.4" font-family="Arial" font-size="14.00">valid_from </text>
<text text-anchor="start" x="118.67" y="-209.4" font-family="Arial" font-size="14.00" fill="#666666">[datetime]</text>
<text text-anchor="start" x="180.14" y="-209.4" font-family="Arial" font-size="14.00"> 有効開始日時</text>
<polygon fill="none" stroke="black" points="43.2,-166.4 43.2,-197.2 642.48,-197.2 642.48,-166.4 43.2,-166.4"/>
<text text-anchor="start" x="50.2" y="-178.6" font-family="Arial" font-size="14.00">valid_to </text>
<text text-anchor="start" x="102.34" y="-178.6" font-family="Arial" font-size="14.00" fill="#666666">[datetime]</text>
<text text-anchor="start" x="163.82" y="-178.6" font-family="Arial" font-size="14.00"> 有効終了日時</text>
<polygon fill="none" stroke="black" points="43.2,-135.6 43.2,-166.4 642.48,-166.4 642.48,-135.6 43.2,-135.6"/>
<text text-anchor="start" x="50.2" y="-147.8" font-family="Arial" font-size="14.00">deleted_at </text>
<text text-anchor="start" x="119.48" y="-147.8" font-family="Arial" font-size="14.00" fill="#666666">[datetime]</text>
<text text-anchor="start" x="180.96" y="-147.8" font-family="Arial" font-size="14.00"> 論理削除日時</text>
<polygon fill="none" stroke="black" points="43.2,-104.8 43.2,-135.6 642.48,-135.6 642.48,-104.8 43.2,-104.8"/>
<text text-anchor="start" x="50.2" y="-117" font-family="Arial" font-size="14.00">created_at </text>
<text text-anchor="start" x="120.25" y="-117" font-family="Arial" font-size="14.00" fill="#666666">[datetime]</text>
<text text-anchor="start" x="181.72" y="-117" font-family="Arial" font-size="14.00"> 登録日時</text>
<polygon fill="none" stroke="black" points="43.2,-74 43.2,-104.8 642.48,-104.8 642.48,-74 43.2,-74"/>
<text text-anchor="start" x="50.2" y="-86.2" font-family="Arial" font-size="14.00">updated_at </text>
<text text-anchor="start" x="124.16" y="-86.2" font-family="Arial" font-size="14.00" fill="#666666">[datetime]</text>
<text text-anchor="start" x="185.63" y="-86.2" font-family="Arial" font-size="14.00"> 更新日時</text>
<polygon fill="none" stroke="black" points="43.2,-43.2 43.2,-74 642.48,-74 642.48,-43.2 43.2,-43.2"/>
<text text-anchor="start" x="50.2" y="-55.4" font-family="Arial" font-size="14.00">version </text>
<text text-anchor="start" x="99.22" y="-55.4" font-family="Arial" font-size="14.00" fill="#666666">[int unsigned]</text>
<text text-anchor="start" x="182.5" y="-55.4" font-family="Arial" font-size="14.00"> バージョン</text>
</g>
<!-- m_employee_delegate&#45;&gt;m_employee -->
<g id="edge2" class="edge">
<title>m_employee_delegate:emp_id&#45;&gt;m_employee:emp_id</title>
<path fill="none" stroke="black" d="M554.56,-1087.96C652.26,-1060.3 741.55,-643.8 643.48,-643.8"/>
<polygon fill="black" stroke="black" points="554.7,-1087.94 544.17,-1084.9 549.42,-1088.69 545.13,-1089.31 545.13,-1089.31 545.13,-1089.31 549.42,-1088.69 545.44,-1093.81 554.7,-1087.94"/>
<text text-anchor="start" x="551.47" y="-1099.4" font-family="Arial" font-size="10.00">FOREIGN KEY (emp_id) REFERENCES m_employee (emp_id)</text>
</g>
<!-- m_employee_delegate&#45;&gt;m_employee -->
<g id="edge3" class="edge">
<title>m_employee_delegate:delegate_id&#45;&gt;m_employee:emp_id</title>
<path fill="none" stroke="black" d="M554.75,-1057.01C646.14,-1029.17 734.82,-643.8 643.48,-643.8"/>
<polygon fill="black" stroke="black" points="554.68,-1057.02 544.12,-1054.1 549.41,-1057.84 545.13,-1058.5 545.13,-1058.5 545.13,-1058.5 549.41,-1057.84 545.49,-1063 554.68,-1057.02"/>
<text text-anchor="start" x="551.47" y="-1068.6" font-family="Arial" font-size="10.00">FOREIGN KEY (delegate_id) REFERENCES m_employee (emp_id)</text>
</g>
</g>
</svg>
