<?xml version="1.0" encoding="UTF-8" standalone="no"?>
<!DOCTYPE svg PUBLIC "-//W3C//DTD SVG 1.1//EN"
 "http://www.w3.org/Graphics/SVG/1.1/DTD/svg11.dtd">
<!-- Generated by graphviz version 12.1.2 (20240928.0832)
 -->
<!-- Title: m_role_permission Pages: 1 -->
<svg width="901pt" height="1530pt"
 viewBox="0.00 0.00 900.66 1530.40" xmlns="http://www.w3.org/2000/svg" xmlns:xlink="http://www.w3.org/1999/xlink">
<g id="graph0" class="graph" transform="scale(1 1) rotate(0) translate(4 1526.4)">
<title>m_role_permission</title>
<polygon fill="white" stroke="none" points="-4,4 -4,-1526.4 896.66,-1526.4 896.66,4 -4,4"/>
<!-- m_role_permission -->
<g id="node1" class="node">
<title>m_role_permission</title>
<polygon fill="#efefef" stroke="none" points="304.57,-1430.2 304.57,-1476.2 582.04,-1476.2 582.04,-1430.2 304.57,-1430.2"/>
<polygon fill="none" stroke="black" points="304.57,-1430.2 304.57,-1476.2 582.04,-1476.2 582.04,-1430.2 304.57,-1430.2"/>
<text text-anchor="start" x="311.57" y="-1454" font-family="Arial Bold" font-size="18.00">m_role_permission</text>
<text text-anchor="start" x="450.55" y="-1454" font-family="Arial" font-size="14.00">    </text>
<text text-anchor="start" x="481.67" y="-1454" font-family="Arial" font-size="14.00" fill="#666666">[BASE TABLE]</text>
<text text-anchor="start" x="367.46" y="-1439.6" font-family="Arial" font-size="14.00" fill="#333333">ロールパーミッションマスタ</text>
<polygon fill="none" stroke="black" points="304.57,-1399.4 304.57,-1430.2 582.04,-1430.2 582.04,-1399.4 304.57,-1399.4"/>
<text text-anchor="start" x="311.57" y="-1411.6" font-family="Arial" font-size="14.00">role_id </text>
<text text-anchor="start" x="357.49" y="-1411.6" font-family="Arial" font-size="14.00" fill="#666666">[bigint unsigned]</text>
<text text-anchor="start" x="459.45" y="-1411.6" font-family="Arial" font-size="14.00"> ロールID</text>
<polygon fill="none" stroke="black" points="304.57,-1368.6 304.57,-1399.4 582.04,-1399.4 582.04,-1368.6 304.57,-1368.6"/>
<text text-anchor="start" x="311.57" y="-1380.8" font-family="Arial" font-size="14.00">perm_id </text>
<text text-anchor="start" x="366.04" y="-1380.8" font-family="Arial" font-size="14.00" fill="#666666">[bigint unsigned]</text>
<text text-anchor="start" x="468" y="-1380.8" font-family="Arial" font-size="14.00"> パーミッションID</text>
<polygon fill="none" stroke="black" points="304.57,-1337.8 304.57,-1368.6 582.04,-1368.6 582.04,-1337.8 304.57,-1337.8"/>
<text text-anchor="start" x="311.57" y="-1350" font-family="Arial" font-size="14.00">valid_from </text>
<text text-anchor="start" x="380.04" y="-1350" font-family="Arial" font-size="14.00" fill="#666666">[datetime]</text>
<text text-anchor="start" x="441.51" y="-1350" font-family="Arial" font-size="14.00"> 付与開始日時</text>
<polygon fill="none" stroke="black" points="304.57,-1307 304.57,-1337.8 582.04,-1337.8 582.04,-1307 304.57,-1307"/>
<text text-anchor="start" x="311.57" y="-1319.2" font-family="Arial" font-size="14.00">valid_to </text>
<text text-anchor="start" x="363.71" y="-1319.2" font-family="Arial" font-size="14.00" fill="#666666">[datetime]</text>
<text text-anchor="start" x="425.19" y="-1319.2" font-family="Arial" font-size="14.00"> 付与終了日時</text>
<polygon fill="none" stroke="black" points="304.57,-1276.2 304.57,-1307 582.04,-1307 582.04,-1276.2 304.57,-1276.2"/>
<text text-anchor="start" x="311.57" y="-1288.4" font-family="Arial" font-size="14.00">deleted_at </text>
<text text-anchor="start" x="380.85" y="-1288.4" font-family="Arial" font-size="14.00" fill="#666666">[datetime]</text>
<text text-anchor="start" x="442.33" y="-1288.4" font-family="Arial" font-size="14.00"> 論理削除日時</text>
<polygon fill="none" stroke="black" points="304.57,-1245.4 304.57,-1276.2 582.04,-1276.2 582.04,-1245.4 304.57,-1245.4"/>
<text text-anchor="start" x="311.57" y="-1257.6" font-family="Arial" font-size="14.00">created_at </text>
<text text-anchor="start" x="381.62" y="-1257.6" font-family="Arial" font-size="14.00" fill="#666666">[datetime]</text>
<text text-anchor="start" x="443.09" y="-1257.6" font-family="Arial" font-size="14.00"> 登録日時</text>
<polygon fill="none" stroke="black" points="304.57,-1214.6 304.57,-1245.4 582.04,-1245.4 582.04,-1214.6 304.57,-1214.6"/>
<text text-anchor="start" x="311.57" y="-1226.8" font-family="Arial" font-size="14.00">updated_at </text>
<text text-anchor="start" x="385.53" y="-1226.8" font-family="Arial" font-size="14.00" fill="#666666">[datetime]</text>
<text text-anchor="start" x="447" y="-1226.8" font-family="Arial" font-size="14.00"> 更新日時</text>
<polygon fill="none" stroke="black" stroke-width="3" points="303.07,-1213.1 303.07,-1477.7 583.54,-1477.7 583.54,-1213.1 303.07,-1213.1"/>
</g>
<!-- m_role -->
<g id="node2" class="node">
<title>m_role</title>
<polygon fill="#efefef" stroke="none" points="43.2,-1043.2 43.2,-1089.2 391.41,-1089.2 391.41,-1043.2 43.2,-1043.2"/>
<polygon fill="none" stroke="black" points="43.2,-1043.2 43.2,-1089.2 391.41,-1089.2 391.41,-1043.2 43.2,-1043.2"/>
<text text-anchor="start" x="129.57" y="-1067" font-family="Arial Bold" font-size="18.00">m_role</text>
<text text-anchor="start" x="180.55" y="-1067" font-family="Arial" font-size="14.00">    </text>
<text text-anchor="start" x="211.67" y="-1067" font-family="Arial" font-size="14.00" fill="#666666">[BASE TABLE]</text>
<text text-anchor="start" x="182.3" y="-1052.6" font-family="Arial" font-size="14.00" fill="#333333">ロールマスタ</text>
<polygon fill="none" stroke="black" points="43.2,-1012.4 43.2,-1043.2 391.41,-1043.2 391.41,-1012.4 43.2,-1012.4"/>
<text text-anchor="start" x="50.2" y="-1024.6" font-family="Arial" font-size="14.00">role_id </text>
<text text-anchor="start" x="96.12" y="-1024.6" font-family="Arial" font-size="14.00" fill="#666666">[bigint unsigned]</text>
<text text-anchor="start" x="198.08" y="-1024.6" font-family="Arial" font-size="14.00"> ロールID（PK）</text>
<polygon fill="none" stroke="black" points="43.2,-981.6 43.2,-1012.4 391.41,-1012.4 391.41,-981.6 43.2,-981.6"/>
<text text-anchor="start" x="50.2" y="-993.8" font-family="Arial" font-size="14.00">company_id </text>
<text text-anchor="start" x="129.58" y="-993.8" font-family="Arial" font-size="14.00" fill="#666666">[bigint unsigned]</text>
<text text-anchor="start" x="231.54" y="-993.8" font-family="Arial" font-size="14.00"> 会社ID (NULL = 全社共通)</text>
<polygon fill="none" stroke="black" points="43.2,-950.8 43.2,-981.6 391.41,-981.6 391.41,-950.8 43.2,-950.8"/>
<text text-anchor="start" x="50.2" y="-963" font-family="Arial" font-size="14.00">role_code </text>
<text text-anchor="start" x="115.58" y="-963" font-family="Arial" font-size="14.00" fill="#666666">[varchar(30)]</text>
<text text-anchor="start" x="194.94" y="-963" font-family="Arial" font-size="14.00"> ロールコード</text>
<polygon fill="none" stroke="black" points="43.2,-920 43.2,-950.8 391.41,-950.8 391.41,-920 43.2,-920"/>
<text text-anchor="start" x="50.2" y="-932.2" font-family="Arial" font-size="14.00">role_name </text>
<text text-anchor="start" x="120.24" y="-932.2" font-family="Arial" font-size="14.00" fill="#666666">[varchar(100)]</text>
<text text-anchor="start" x="207.39" y="-932.2" font-family="Arial" font-size="14.00"> ロール名称</text>
<polygon fill="none" stroke="black" points="43.2,-889.2 43.2,-920 391.41,-920 391.41,-889.2 43.2,-889.2"/>
<text text-anchor="start" x="50.2" y="-901.4" font-family="Arial" font-size="14.00">role_desc </text>
<text text-anchor="start" x="114.79" y="-901.4" font-family="Arial" font-size="14.00" fill="#666666">[varchar(255)]</text>
<text text-anchor="start" x="201.94" y="-901.4" font-family="Arial" font-size="14.00"> ロール説明</text>
<polygon fill="none" stroke="black" points="43.2,-858.4 43.2,-889.2 391.41,-889.2 391.41,-858.4 43.2,-858.4"/>
<text text-anchor="start" x="50.2" y="-870.6" font-family="Arial" font-size="14.00">is_system_role </text>
<text text-anchor="start" x="147.45" y="-870.6" font-family="Arial" font-size="14.00" fill="#666666">[tinyint(1)]</text>
<text text-anchor="start" x="208.92" y="-870.6" font-family="Arial" font-size="14.00"> システムロール (1=システム)</text>
<polygon fill="none" stroke="black" points="43.2,-827.6 43.2,-858.4 391.41,-858.4 391.41,-827.6 43.2,-827.6"/>
<text text-anchor="start" x="50.2" y="-839.8" font-family="Arial" font-size="14.00">valid_from </text>
<text text-anchor="start" x="118.67" y="-839.8" font-family="Arial" font-size="14.00" fill="#666666">[datetime]</text>
<text text-anchor="start" x="180.14" y="-839.8" font-family="Arial" font-size="14.00"> 有効開始日時</text>
<polygon fill="none" stroke="black" points="43.2,-796.8 43.2,-827.6 391.41,-827.6 391.41,-796.8 43.2,-796.8"/>
<text text-anchor="start" x="50.2" y="-809" font-family="Arial" font-size="14.00">valid_to </text>
<text text-anchor="start" x="102.34" y="-809" font-family="Arial" font-size="14.00" fill="#666666">[datetime]</text>
<text text-anchor="start" x="163.82" y="-809" font-family="Arial" font-size="14.00"> 有効終了日時</text>
<polygon fill="none" stroke="black" points="43.2,-766 43.2,-796.8 391.41,-796.8 391.41,-766 43.2,-766"/>
<text text-anchor="start" x="50.2" y="-778.2" font-family="Arial" font-size="14.00">deleted_at </text>
<text text-anchor="start" x="119.48" y="-778.2" font-family="Arial" font-size="14.00" fill="#666666">[datetime]</text>
<text text-anchor="start" x="180.96" y="-778.2" font-family="Arial" font-size="14.00"> 論理削除日時</text>
<polygon fill="none" stroke="black" points="43.2,-735.2 43.2,-766 391.41,-766 391.41,-735.2 43.2,-735.2"/>
<text text-anchor="start" x="50.2" y="-747.4" font-family="Arial" font-size="14.00">created_at </text>
<text text-anchor="start" x="120.25" y="-747.4" font-family="Arial" font-size="14.00" fill="#666666">[datetime]</text>
<text text-anchor="start" x="181.72" y="-747.4" font-family="Arial" font-size="14.00"> 登録日時</text>
<polygon fill="none" stroke="black" points="43.2,-704.4 43.2,-735.2 391.41,-735.2 391.41,-704.4 43.2,-704.4"/>
<text text-anchor="start" x="50.2" y="-716.6" font-family="Arial" font-size="14.00">updated_at </text>
<text text-anchor="start" x="124.16" y="-716.6" font-family="Arial" font-size="14.00" fill="#666666">[datetime]</text>
<text text-anchor="start" x="185.63" y="-716.6" font-family="Arial" font-size="14.00"> 更新日時</text>
<polygon fill="none" stroke="black" points="43.2,-673.6 43.2,-704.4 391.41,-704.4 391.41,-673.6 43.2,-673.6"/>
<text text-anchor="start" x="50.2" y="-685.8" font-family="Arial" font-size="14.00">version </text>
<text text-anchor="start" x="99.22" y="-685.8" font-family="Arial" font-size="14.00" fill="#666666">[int unsigned]</text>
<text text-anchor="start" x="182.5" y="-685.8" font-family="Arial" font-size="14.00"> バージョン</text>
</g>
<!-- m_role_permission&#45;&gt;m_role -->
<g id="edge1" class="edge">
<title>m_role_permission:role_id&#45;&gt;m_role:role_id</title>
<path fill="none" stroke="black" d="M293.18,-1414.29C197.36,-1404.55 245.58,-1256.32 304.57,-1168.4 327.85,-1133.7 368.04,-1167.03 391.41,-1132.4 417.42,-1093.86 438.9,-1027.8 392.41,-1027.8"/>
<polygon fill="black" stroke="black" points="293.25,-1414.3 303.02,-1419.28 298.58,-1414.56 302.9,-1414.77 302.9,-1414.77 302.9,-1414.77 298.58,-1414.56 303.45,-1410.29 293.25,-1414.3"/>
<text text-anchor="start" x="44.84" y="-1424.8" font-family="Arial" font-size="10.00">FOREIGN KEY (role_id) REFERENCES m_role (role_id)</text>
</g>
<!-- m_permission -->
<g id="node4" class="node">
<title>m_permission</title>
<polygon fill="#efefef" stroke="none" points="496.2,-1043.2 496.2,-1089.2 844.41,-1089.2 844.41,-1043.2 496.2,-1043.2"/>
<polygon fill="none" stroke="black" points="496.2,-1043.2 496.2,-1089.2 844.41,-1089.2 844.41,-1043.2 496.2,-1043.2"/>
<text text-anchor="start" x="557.06" y="-1067" font-family="Arial Bold" font-size="18.00">m_permission</text>
<text text-anchor="start" x="659.06" y="-1067" font-family="Arial" font-size="14.00">    </text>
<text text-anchor="start" x="690.18" y="-1067" font-family="Arial" font-size="14.00" fill="#666666">[BASE TABLE]</text>
<text text-anchor="start" x="611.96" y="-1052.6" font-family="Arial" font-size="14.00" fill="#333333">パーミッションマスタ</text>
<polygon fill="none" stroke="black" points="496.2,-1012.4 496.2,-1043.2 844.41,-1043.2 844.41,-1012.4 496.2,-1012.4"/>
<text text-anchor="start" x="503.2" y="-1024.6" font-family="Arial" font-size="14.00">perm_id </text>
<text text-anchor="start" x="557.67" y="-1024.6" font-family="Arial" font-size="14.00" fill="#666666">[bigint unsigned]</text>
<text text-anchor="start" x="659.63" y="-1024.6" font-family="Arial" font-size="14.00"> パーミッションID</text>
<polygon fill="none" stroke="black" points="496.2,-981.6 496.2,-1012.4 844.41,-1012.4 844.41,-981.6 496.2,-981.6"/>
<text text-anchor="start" x="503.2" y="-993.8" font-family="Arial" font-size="14.00">company_id </text>
<text text-anchor="start" x="582.58" y="-993.8" font-family="Arial" font-size="14.00" fill="#666666">[bigint unsigned]</text>
<text text-anchor="start" x="684.54" y="-993.8" font-family="Arial" font-size="14.00"> 会社ID (NULL = 全社共通)</text>
<polygon fill="none" stroke="black" points="496.2,-950.8 496.2,-981.6 844.41,-981.6 844.41,-950.8 496.2,-950.8"/>
<text text-anchor="start" x="503.2" y="-963" font-family="Arial" font-size="14.00">perm_code </text>
<text text-anchor="start" x="577.13" y="-963" font-family="Arial" font-size="14.00" fill="#666666">[varchar(50)]</text>
<text text-anchor="start" x="656.49" y="-963" font-family="Arial" font-size="14.00"> 権限コード</text>
<polygon fill="none" stroke="black" points="496.2,-920 496.2,-950.8 844.41,-950.8 844.41,-920 496.2,-920"/>
<text text-anchor="start" x="503.2" y="-932.2" font-family="Arial" font-size="14.00">perm_name </text>
<text text-anchor="start" x="581.79" y="-932.2" font-family="Arial" font-size="14.00" fill="#666666">[varchar(100)]</text>
<text text-anchor="start" x="668.94" y="-932.2" font-family="Arial" font-size="14.00"> 権限名称</text>
<polygon fill="none" stroke="black" points="496.2,-889.2 496.2,-920 844.41,-920 844.41,-889.2 496.2,-889.2"/>
<text text-anchor="start" x="503.2" y="-901.4" font-family="Arial" font-size="14.00">perm_desc </text>
<text text-anchor="start" x="576.34" y="-901.4" font-family="Arial" font-size="14.00" fill="#666666">[varchar(255)]</text>
<text text-anchor="start" x="663.49" y="-901.4" font-family="Arial" font-size="14.00"> 説明</text>
<polygon fill="none" stroke="black" points="496.2,-858.4 496.2,-889.2 844.41,-889.2 844.41,-858.4 496.2,-858.4"/>
<text text-anchor="start" x="503.2" y="-870.6" font-family="Arial" font-size="14.00">perm_group </text>
<text text-anchor="start" x="582.58" y="-870.6" font-family="Arial" font-size="14.00" fill="#666666">[varchar(50)]</text>
<text text-anchor="start" x="661.94" y="-870.6" font-family="Arial" font-size="14.00"> 機能グループ</text>
<polygon fill="none" stroke="black" points="496.2,-827.6 496.2,-858.4 844.41,-858.4 844.41,-827.6 496.2,-827.6"/>
<text text-anchor="start" x="503.2" y="-839.8" font-family="Arial" font-size="14.00">valid_from </text>
<text text-anchor="start" x="571.67" y="-839.8" font-family="Arial" font-size="14.00" fill="#666666">[datetime]</text>
<text text-anchor="start" x="633.14" y="-839.8" font-family="Arial" font-size="14.00"> 有効開始日時</text>
<polygon fill="none" stroke="black" points="496.2,-796.8 496.2,-827.6 844.41,-827.6 844.41,-796.8 496.2,-796.8"/>
<text text-anchor="start" x="503.2" y="-809" font-family="Arial" font-size="14.00">valid_to </text>
<text text-anchor="start" x="555.34" y="-809" font-family="Arial" font-size="14.00" fill="#666666">[datetime]</text>
<text text-anchor="start" x="616.82" y="-809" font-family="Arial" font-size="14.00"> 有効終了日時</text>
<polygon fill="none" stroke="black" points="496.2,-766 496.2,-796.8 844.41,-796.8 844.41,-766 496.2,-766"/>
<text text-anchor="start" x="503.2" y="-778.2" font-family="Arial" font-size="14.00">deleted_at </text>
<text text-anchor="start" x="572.48" y="-778.2" font-family="Arial" font-size="14.00" fill="#666666">[datetime]</text>
<text text-anchor="start" x="633.96" y="-778.2" font-family="Arial" font-size="14.00"> 論理削除日時</text>
<polygon fill="none" stroke="black" points="496.2,-735.2 496.2,-766 844.41,-766 844.41,-735.2 496.2,-735.2"/>
<text text-anchor="start" x="503.2" y="-747.4" font-family="Arial" font-size="14.00">created_at </text>
<text text-anchor="start" x="573.25" y="-747.4" font-family="Arial" font-size="14.00" fill="#666666">[datetime]</text>
<text text-anchor="start" x="634.72" y="-747.4" font-family="Arial" font-size="14.00"> 登録日時</text>
<polygon fill="none" stroke="black" points="496.2,-704.4 496.2,-735.2 844.41,-735.2 844.41,-704.4 496.2,-704.4"/>
<text text-anchor="start" x="503.2" y="-716.6" font-family="Arial" font-size="14.00">updated_at </text>
<text text-anchor="start" x="577.16" y="-716.6" font-family="Arial" font-size="14.00" fill="#666666">[datetime]</text>
<text text-anchor="start" x="638.63" y="-716.6" font-family="Arial" font-size="14.00"> 更新日時</text>
<polygon fill="none" stroke="black" points="496.2,-673.6 496.2,-704.4 844.41,-704.4 844.41,-673.6 496.2,-673.6"/>
<text text-anchor="start" x="503.2" y="-685.8" font-family="Arial" font-size="14.00">version </text>
<text text-anchor="start" x="552.22" y="-685.8" font-family="Arial" font-size="14.00" fill="#666666">[int unsigned]</text>
<text text-anchor="start" x="635.5" y="-685.8" font-family="Arial" font-size="14.00"> バージョン</text>
</g>
<!-- m_role_permission&#45;&gt;m_permission -->
<g id="edge3" class="edge">
<title>m_role_permission:perm_id&#45;&gt;m_permission:perm_id</title>
<path fill="none" stroke="black" d="M593.39,-1383.42C675.53,-1373.73 633.26,-1245.03 582.04,-1168.4 559.05,-1134 519.27,-1166.74 496.2,-1132.4 470.27,-1093.81 448.71,-1027.8 495.2,-1027.8"/>
<polygon fill="black" stroke="black" points="593.36,-1383.42 583.12,-1379.49 588.03,-1383.72 583.71,-1383.96 583.71,-1383.96 583.71,-1383.96 588.03,-1383.72 583.63,-1388.47 593.36,-1383.42"/>
<text text-anchor="start" x="590.04" y="-1394" font-family="Arial" font-size="10.00">FOREIGN KEY (perm_id) REFERENCES m_permission (perm_id)</text>
</g>
<!-- m_company -->
<g id="node3" class="node">
<title>m_company</title>
<polygon fill="#efefef" stroke="none" points="250.12,-505.2 250.12,-551.2 636.49,-551.2 636.49,-505.2 250.12,-505.2"/>
<polygon fill="none" stroke="black" points="250.12,-505.2 250.12,-551.2 636.49,-551.2 636.49,-505.2 250.12,-505.2"/>
<text text-anchor="start" x="336.57" y="-529" font-family="Arial Bold" font-size="18.00">m_company</text>
<text text-anchor="start" x="425.55" y="-529" font-family="Arial" font-size="14.00">    </text>
<text text-anchor="start" x="456.67" y="-529" font-family="Arial" font-size="14.00" fill="#666666">[BASE TABLE]</text>
<text text-anchor="start" x="414.13" y="-514.6" font-family="Arial" font-size="14.00" fill="#333333">会社マスタ</text>
<polygon fill="none" stroke="black" points="250.12,-474.4 250.12,-505.2 636.49,-505.2 636.49,-474.4 250.12,-474.4"/>
<text text-anchor="start" x="257.12" y="-486.6" font-family="Arial" font-size="14.00">company_id </text>
<text text-anchor="start" x="336.5" y="-486.6" font-family="Arial" font-size="14.00" fill="#666666">[bigint unsigned]</text>
<text text-anchor="start" x="438.46" y="-486.6" font-family="Arial" font-size="14.00"> 会社ID</text>
<polygon fill="none" stroke="black" points="250.12,-443.6 250.12,-474.4 636.49,-474.4 636.49,-443.6 250.12,-443.6"/>
<text text-anchor="start" x="257.12" y="-455.8" font-family="Arial" font-size="14.00">company_code </text>
<text text-anchor="start" x="355.96" y="-455.8" font-family="Arial" font-size="14.00" fill="#666666">[varchar(20)]</text>
<text text-anchor="start" x="435.32" y="-455.8" font-family="Arial" font-size="14.00"> 会社コード</text>
<polygon fill="none" stroke="black" points="250.12,-412.8 250.12,-443.6 636.49,-443.6 636.49,-412.8 250.12,-412.8"/>
<text text-anchor="start" x="257.12" y="-425" font-family="Arial" font-size="14.00">company_name </text>
<text text-anchor="start" x="360.62" y="-425" font-family="Arial" font-size="14.00" fill="#666666">[varchar(100)]</text>
<text text-anchor="start" x="447.77" y="-425" font-family="Arial" font-size="14.00"> 会社名</text>
<polygon fill="none" stroke="black" points="250.12,-382 250.12,-412.8 636.49,-412.8 636.49,-382 250.12,-382"/>
<text text-anchor="start" x="257.12" y="-394.2" font-family="Arial" font-size="14.00">legal_name </text>
<text text-anchor="start" x="333.4" y="-394.2" font-family="Arial" font-size="14.00" fill="#666666">[varchar(200)]</text>
<text text-anchor="start" x="420.54" y="-394.2" font-family="Arial" font-size="14.00"> 登記上名称</text>
<polygon fill="none" stroke="black" points="250.12,-351.2 250.12,-382 636.49,-382 636.49,-351.2 250.12,-351.2"/>
<text text-anchor="start" x="257.12" y="-363.4" font-family="Arial" font-size="14.00">parent_company_id </text>
<text text-anchor="start" x="383.98" y="-363.4" font-family="Arial" font-size="14.00" fill="#666666">[bigint unsigned]</text>
<text text-anchor="start" x="485.95" y="-363.4" font-family="Arial" font-size="14.00"> 親会社ID（NULL=持株）</text>
<polygon fill="none" stroke="black" points="250.12,-320.4 250.12,-351.2 636.49,-351.2 636.49,-320.4 250.12,-320.4"/>
<text text-anchor="start" x="257.12" y="-332.6" font-family="Arial" font-size="14.00">country_code </text>
<text text-anchor="start" x="345.07" y="-332.6" font-family="Arial" font-size="14.00" fill="#666666">[char(2)]</text>
<text text-anchor="start" x="397.19" y="-332.6" font-family="Arial" font-size="14.00"> 国コード (ISO&#45;3166)</text>
<polygon fill="none" stroke="black" points="250.12,-289.6 250.12,-320.4 636.49,-320.4 636.49,-289.6 250.12,-289.6"/>
<text text-anchor="start" x="257.12" y="-301.8" font-family="Arial" font-size="14.00">postal_code </text>
<text text-anchor="start" x="336.51" y="-301.8" font-family="Arial" font-size="14.00" fill="#666666">[varchar(12)]</text>
<text text-anchor="start" x="415.87" y="-301.8" font-family="Arial" font-size="14.00"> 郵便番号</text>
<polygon fill="none" stroke="black" points="250.12,-258.8 250.12,-289.6 636.49,-289.6 636.49,-258.8 250.12,-258.8"/>
<text text-anchor="start" x="257.12" y="-271" font-family="Arial" font-size="14.00">address_line1 </text>
<text text-anchor="start" x="348.18" y="-271" font-family="Arial" font-size="14.00" fill="#666666">[varchar(100)]</text>
<text text-anchor="start" x="435.33" y="-271" font-family="Arial" font-size="14.00"> 住所1</text>
<polygon fill="none" stroke="black" points="250.12,-228 250.12,-258.8 636.49,-258.8 636.49,-228 250.12,-228"/>
<text text-anchor="start" x="257.12" y="-240.2" font-family="Arial" font-size="14.00">address_line2 </text>
<text text-anchor="start" x="348.18" y="-240.2" font-family="Arial" font-size="14.00" fill="#666666">[varchar(100)]</text>
<text text-anchor="start" x="435.33" y="-240.2" font-family="Arial" font-size="14.00"> 住所2</text>
<polygon fill="none" stroke="black" points="250.12,-197.2 250.12,-228 636.49,-228 636.49,-197.2 250.12,-197.2"/>
<text text-anchor="start" x="257.12" y="-209.4" font-family="Arial" font-size="14.00">valid_from </text>
<text text-anchor="start" x="325.59" y="-209.4" font-family="Arial" font-size="14.00" fill="#666666">[datetime]</text>
<text text-anchor="start" x="387.07" y="-209.4" font-family="Arial" font-size="14.00"> 有効開始日時</text>
<polygon fill="none" stroke="black" points="250.12,-166.4 250.12,-197.2 636.49,-197.2 636.49,-166.4 250.12,-166.4"/>
<text text-anchor="start" x="257.12" y="-178.6" font-family="Arial" font-size="14.00">valid_to </text>
<text text-anchor="start" x="309.27" y="-178.6" font-family="Arial" font-size="14.00" fill="#666666">[datetime]</text>
<text text-anchor="start" x="370.74" y="-178.6" font-family="Arial" font-size="14.00"> 有効終了日時</text>
<polygon fill="none" stroke="black" points="250.12,-135.6 250.12,-166.4 636.49,-166.4 636.49,-135.6 250.12,-135.6"/>
<text text-anchor="start" x="257.12" y="-147.8" font-family="Arial" font-size="14.00">deleted_at </text>
<text text-anchor="start" x="326.4" y="-147.8" font-family="Arial" font-size="14.00" fill="#666666">[datetime]</text>
<text text-anchor="start" x="387.88" y="-147.8" font-family="Arial" font-size="14.00"> 論理削除日時</text>
<polygon fill="none" stroke="black" points="250.12,-104.8 250.12,-135.6 636.49,-135.6 636.49,-104.8 250.12,-104.8"/>
<text text-anchor="start" x="257.12" y="-117" font-family="Arial" font-size="14.00">created_at </text>
<text text-anchor="start" x="327.17" y="-117" font-family="Arial" font-size="14.00" fill="#666666">[datetime]</text>
<text text-anchor="start" x="388.64" y="-117" font-family="Arial" font-size="14.00"> 登録日時</text>
<polygon fill="none" stroke="black" points="250.12,-74 250.12,-104.8 636.49,-104.8 636.49,-74 250.12,-74"/>
<text text-anchor="start" x="257.12" y="-86.2" font-family="Arial" font-size="14.00">updated_at </text>
<text text-anchor="start" x="331.08" y="-86.2" font-family="Arial" font-size="14.00" fill="#666666">[datetime]</text>
<text text-anchor="start" x="392.55" y="-86.2" font-family="Arial" font-size="14.00"> 更新日時</text>
<polygon fill="none" stroke="black" points="250.12,-43.2 250.12,-74 636.49,-74 636.49,-43.2 250.12,-43.2"/>
<text text-anchor="start" x="257.12" y="-55.4" font-family="Arial" font-size="14.00">version </text>
<text text-anchor="start" x="306.14" y="-55.4" font-family="Arial" font-size="14.00" fill="#666666">[int unsigned]</text>
<text text-anchor="start" x="389.42" y="-55.4" font-family="Arial" font-size="14.00"> バージョン</text>
</g>
<!-- m_role&#45;&gt;m_company -->
<g id="edge2" class="edge">
<title>m_role:company_id&#45;&gt;m_company:company_id</title>
<path fill="none" stroke="black" d="M402.29,-995.37C471.06,-971.46 439.34,-691.9 391.41,-630.4 351.58,-579.29 290.13,-645.38 250.12,-594.4 221.42,-557.83 202.63,-489.8 249.12,-489.8"/>
<polygon fill="black" stroke="black" points="402.61,-995.32 392.01,-992.51 397.34,-996.19 393.07,-996.89 393.07,-996.89 393.07,-996.89 397.34,-996.19 393.47,-1001.39 402.61,-995.32"/>
<text text-anchor="start" x="399.41" y="-1007" font-family="Arial" font-size="10.00">FOREIGN KEY (company_id) REFERENCES m_company (company_id)</text>
</g>
<!-- m_permission&#45;&gt;m_company -->
<g id="edge4" class="edge">
<title>m_permission:company_id&#45;&gt;m_company:company_id</title>
<path fill="none" stroke="black" d="M485.32,-995.37C416.55,-971.46 448.33,-691.94 496.2,-630.4 535.73,-579.59 596.79,-645.07 636.49,-594.4 665.16,-557.8 683.98,-489.8 637.49,-489.8"/>
<polygon fill="black" stroke="black" points="485,-995.32 494.14,-1001.39 490.27,-996.19 494.54,-996.89 494.54,-996.89 494.54,-996.89 490.27,-996.19 495.6,-992.51 485,-995.32"/>
<text text-anchor="start" x="502.2" y="-981" font-family="Arial" font-size="10.00">FOREIGN KEY (company_id) REFERENCES m_company (company_id)</text>
</g>
</g>
</svg>
